<svg width="240" height="240" viewBox="0 0 240 240" fill="none" xmlns="http://www.w3.org/2000/svg">
<mask id="mask0" mask-type="alpha" maskUnits="userSpaceOnUse" x="0" y="0" width="240" height="240">
<circle cx="120" cy="120" r="120" fill="#222222"/>
</mask>
<g mask="url(#mask0)">
<circle cx="120" cy="120" r="120" fill="#0086E6"/>
<path d="M157.622 98.4069C158.846 90.6272 157.613 85.3347 153.392 80.5394C148.744 75.2612 140.349 73 129.607 73H98.4246C96.2296 73 94.3595 74.592 94.0182 76.7544L81.0331 158.822C80.7776 160.441 82.0335 161.905 83.6767 161.905H102.927L101.599 170.303C101.375 171.72 102.472 173 103.911 173H120.138C122.058 173 123.693 171.608 123.992 169.716L124.152 168.893L127.208 149.573L127.405 148.506C127.705 146.615 129.34 145.221 131.26 145.221H133.687C149.407 145.221 161.715 138.856 165.311 120.446C166.815 112.754 166.037 106.333 162.063 101.819C160.862 100.456 159.366 99.3277 157.622 98.4069Z" fill="#CDE9FD"/>
<path opacity="0.68" fill-rule="evenodd" clip-rule="evenodd" d="M157.622 98.4069C158.846 90.6272 157.613 85.3347 153.392 80.5394C148.744 75.2612 140.349 73 129.607 73H98.4246C96.2296 73 94.3595 74.592 94.0182 76.7544L81.0331 158.822C80.7776 160.441 82.0335 161.905 83.6767 161.905H102.927L107.763 131.341L107.612 132.299C107.955 130.138 109.807 128.545 112.003 128.545H121.153C139.122 128.545 153.193 121.268 157.303 100.225C157.425 99.6037 157.529 98.9997 157.622 98.4069Z" fill="white"/>
<path fill-rule="evenodd" clip-rule="evenodd" d="M112.958 98.5098C113.163 97.2101 114.001 96.1447 115.128 95.6069C115.64 95.3624 116.214 95.226 116.814 95.226H141.256C144.152 95.226 146.852 95.4154 149.32 95.8116C150.025 95.9247 150.712 96.0551 151.379 96.2028C152.045 96.3504 152.693 96.5144 153.319 96.6978C153.633 96.7884 153.941 96.8852 154.244 96.985C155.456 97.3863 156.585 97.8589 157.624 98.4079C158.848 90.6282 157.615 85.3358 153.394 80.5404C148.744 75.2612 140.349 73 129.607 73H98.4246C96.2296 73 94.3595 74.592 94.0182 76.7544L81.0331 158.822C80.7776 160.441 82.0335 161.905 83.6767 161.905H102.927L107.763 131.341L112.958 98.5098Z" fill="white"/>
</g>
</svg>
